<svg id="Steven_Emerson" data-name="Steven Emerson" xmlns="http://www.w3.org/2000/svg" viewBox="0 0 310.46 111.01"><defs><style>.cls-1{fill:#fff;}</style></defs><g id="Steven_Emerson-2" data-name="Steven Emerson"><path class="cls-1" d="M84.75,4.22a110.2,110.2,0,0,0-37.7,25.15c-3.16,3.47-10.6,11.27-6.56,15.49,2.15,2.13,5.69,3.29,8.76,4.26,3.56,1.09,7.31,1.89,11.31,3.14,7.63,2,14.31,9.15,12,17.55-5.69,19.56-44.06,32.2-61.88,38a3.93,3.93,0,0,0,1.37-7,17.63,17.63,0,0,0,3.78.31c13.06-.29,26-3.4,38.79-6.38a504.72,504.72,0,0,0,66.16-20.86c7.13-2.87,14.18-6,20.9-9.47,6.5-3.45,12.91-7.44,17.77-12.87,4.31-4.69,7.28-11.7,3.42-17.17-8.27-12-26.34-7.57-37.29-1-9.4,5.61-17,14.15-22.47,23.65a80.15,80.15,0,0,0-8.37,20.3C93.5,82.37,92.28,88.49,96,92.64c7.46,7,23,4.89,33,3.67,7.56-1.09,15.08-2.72,22.77-4.29a70.33,70.33,0,0,1,9-1.39,30.92,30.92,0,0,1,6.17-.17,4.7,4.7,0,0,1,.68.17,3.37,3.37,0,0,1,1.8,1.38,3.5,3.5,0,0,1,.06,3.7,5.9,5.9,0,0,1-2.36,2,42.66,42.66,0,0,0-5.83,3.51,17.51,17.51,0,0,0-2.84,2.8,2.22,2.22,0,0,0-.19-1.73,1.82,1.82,0,0,0-.76-.78c-.18-.07.11.05.42.09,4.43.39,9.1-.34,13.73-.81,7.64-.92,15.38-2.17,23.16-3.1,11.75-1.28,23.58-3,35.49-1.74,6.67.84,13.44,1.71,20.15,2l14.61.42c4.85.07,9.69.33,14.49-.06,3-.17,6-.28,8.79-.39,5.58-.16,16.31-.51,21.95-.47.49,0,1,0,1.55.06a.6.6,0,0,1,.54.65.61.61,0,0,1-.71.54c-8.79.17-20.22,1.09-29,1.72a150.66,150.66,0,0,1-17.6.82c-7.13,0-16.56.24-23.5-.41-3.91-.28-7.8-.6-11.71-1-11.4-.82-23,1.2-34.33,2.8-7.67,1.16-15.28,2.63-23.08,3.82a110.3,110.3,0,0,1-11.95,1.31c-2,0-3.65.17-5.79-.79a4.16,4.16,0,0,1-2.22-4.68c.85-2.7,2.92-4.3,4.86-6.08a54.3,54.3,0,0,1,7-4.49c.13-.09.09-.08,0,0a3.05,3.05,0,0,0-.36,3.89,2.85,2.85,0,0,0,1.51,1.19,2.94,2.94,0,0,0,.39.1,61.85,61.85,0,0,0-12.7,1.82c-16.65,3.6-36.86,9.49-53.83,5C85.89,99.87,82.43,87.36,85.66,75.05c7.34-27.48,30.09-53.63,60-55.24,8.93-.54,19,2.17,23.85,10.64A19,19,0,0,1,171,44.54c-5.6,19.2-30.39,29.62-46.91,37.35a505.59,505.59,0,0,1-66.75,23.6c-11.54,3.08-23.19,6-35.2,7.35-5.71.4-11.86,1.22-17.06-2.4-3.83-2.77-4.33-9.06-.53-12.2a7.45,7.45,0,0,1,2.9-1.56C13,95.3,18.55,93.7,24,91.91c11.65-4,35.6-12.49,40.38-24.31,1.38-4.06-2.71-6.94-6.25-8-5.29-1.83-11.64-3.13-17-5.83C29.49,48.13,30.86,38.17,38.5,29.54A88.56,88.56,0,0,1,84.22,2.23a1,1,0,0,1,.53,2Z" transform="translate(-1.95 -2.2)"/></g></svg>