<?xml version="1.0" encoding="utf-8"?>
<!-- Generator: Adobe Illustrator 28.0.0, SVG Export Plug-In . SVG Version: 6.00 Build 0)  -->
<svg version="1.1" id="Layer_1" xmlns="http://www.w3.org/2000/svg" xmlns:xlink="http://www.w3.org/1999/xlink" x="0px" y="0px"
	 viewBox="0 0 93.66 87.66" style="enable-background:new 0 0 93.66 87.66;" xml:space="preserve">
<style type="text/css">
	.st0{fill-rule:evenodd;clip-rule:evenodd;fill:url(#SVGID_1_);}
	
		.st1{fill-rule:evenodd;clip-rule:evenodd;fill:none;stroke:#FFFFFF;stroke-width:0.5102;stroke-linecap:round;stroke-linejoin:round;stroke-miterlimit:22.9256;stroke-dasharray:2.5512,1.5307;}
</style>
<linearGradient id="SVGID_1_" gradientUnits="userSpaceOnUse" x1="13.1235" y1="13.3459" x2="85.2985" y2="63.8833" gradientTransform="matrix(0.9503 -0.3114 0.3114 0.9503 -12.7387 16.8952)">
	<stop  offset="0.2315" style="stop-color:#EC1F2E"/>
	<stop  offset="1" style="stop-color:#A42A30"/>
</linearGradient>
<path class="st0" d="M41.34,19.26C45.31,3.64,64.25-4.01,78.29,4.58c9.69,5.93,13.56,16.69,13.79,26.24
	c0.46,19.55-14.36,40.78-25.87,52.27c-1.01,1.01-2.02,1.96-3.02,2.86c-1.34-0.13-2.72-0.31-4.13-0.52
	C42.98,82.97,18.47,74.64,7.27,58.6c-5.47-7.83-8.72-18.8-4.41-29.31C9.1,14.06,28.65,9.15,41.34,19.26z"/>
<path class="st1" d="M46,19.14c3.3-6.46,8.12-11.26,13.62-12.93c8.33-2.53,16.84,0.67,22.02,6.75c4.57,5.36,6.33,13.09,6.41,19.29
	c0.23,16.36-13.68,38.71-26.01,49.5c-16.78-1.44-40.92-10.7-50.67-24.38c-3.32-4.66-6.33-11.15-6.24-17.5
	c0.13-9.28,5.61-18.26,15.9-20.59c5.44-1.23,12.12,0.17,18.33,3.66C45.85,26.57,42.07,26.84,46,19.14z"/>
</svg>
