<?xml version="1.0" encoding="UTF-8"?>
<svg xmlns="http://www.w3.org/2000/svg" height="112" viewBox="0 0 231 112" width="231">
  <g fill="none" fill-rule="evenodd">
    <path d="m146.525768 3.58838015h-6.045077c-7.692067 0-14.979436 1.7086183-21.096428 4.63707456-.197413-2.38896672-2.177186-4.27225004-4.61947-4.27225004h-21.7986551c-2.5720128 0-4.657543 2.08330294-4.657543 4.65256904v18.29052649 42.9140685 30.3410043c0 1.633963 1.3254891 2.958037 2.9597889 2.958037h32.3447542c1.63571 0 2.959789-1.324074 2.959789-2.958037v-64.1696746c3.764953-1.8818747 8.657981-3.0157888 13.907764-3.0157888h6.045077c1.859915 0 3.254498-1.1141938 3.254498-2.6044808v-24.17138501c0-1.48746985-1.394583-2.60166364-3.254498-2.60166364" fill="#ffffff"></path>
    <path d="m10.1385814 70.5308619c.3609842-1.086022 1.4481673-1.26773 2.3520381-.7240146 7.0617545 4.1595629 14.6649855 7.4134032 20.8214593 7.4134032 3.8016155.3620073 6.3341457-1.8086281 6.3341457-4.5215703 0-9.2234399-39.6462245-6.3273812-39.6462245-40.3278994 0-19.3497853 16.4741372-32.3707808 41.0958019-32.3707808 11.7672408 0 25.8879299 4.15956293 35.4836247 10.3094619.9052809.7211975 1.4467573 1.6269202 1.085773 2.5298257l-9.2333005 21.3387128c-.3609843 1.0874306-1.4481673 1.2677299-2.3534482.7254232-7.0603445-4.5215702-14.6635755-7.4148118-20.8186391-7.4148118-3.8030256-.3620073-6.3369659 1.4466208-6.3369659 4.3412709 0 9.5840387 39.6476346 6.1470818 39.6476346 40.5096073 0 19.3497854-15.9312507 32.369372-40.010029 32.369372-11.7658307 0-26.4308163-4.159563-36.56939769-10.3080531-.90528084-.9029054-1.44675723-1.8086281-1.08577297-2.8918329z" fill="#ffffff"></path>
    <path d="m230.361683 101.432625-3.791745-9.5445978c-.016921-.0605693-.009871-.1225472-.032432-.1817079l-7.895121-19.868146c-.30458-.7704982-1.180249-1.148-1.954391-.8451534 0 0-4.862007 2.9847999-12.314358 2.3114944-10.853499-1.3592883-17.330064-10.3517196-15.855105-22.3162735 1.016678-8.250105 5.231451-14.1873071 11.249736-16.7382616l2.09258-.959249c.774142-.3042552 1.153458-1.1747631.848877-1.9438526l-7.89371-19.868146-3.880581-9.76715526c-.225615-.56625273-.868618-.84515333-1.436886-.62259628l-2.759556.87895945c-18.936163 5.98791129-31.533949 21.93032009-34.325937 44.57902059-3.924294 31.8411514 15.291068 55.8787209 47.876948 59.8875649 9.874893 1.214203 18.999617.336652 27.038567-2.35657l2.298454-.960657c.669795-.263406.999758-1.017001.73466-1.684673" fill="#ffffff"></path>
  </g>
</svg>
