<?xml version="1.0" encoding="utf-8"?>
<!-- Generator: Adobe Illustrator 28.0.0, SVG Export Plug-In . SVG Version: 6.00 Build 0)  -->
<svg version="1.1" id="icon" xmlns="http://www.w3.org/2000/svg" xmlns:xlink="http://www.w3.org/1999/xlink" x="0px" y="0px"
	 viewBox="0 0 224.9 193.9" style="enable-background:new 0 0 224.9 193.9;" xml:space="preserve">
<style type="text/css">
	.st0{fill:#19FAE1;}
	.st1{fill:#FFFFFF;}
</style>
<path class="st0" d="M27.3,0L27.3,0c15.1,0,27.3,12.2,27.3,27.3l0,0c0,15.1-12.2,27.3-27.3,27.3l0,0C12.2,54.6,0,42.4,0,27.3l0,0
	C0,12.2,12.2,0,27.3,0z"/>
<path class="st1" d="M110.9,0L110.9,0c15.1,0,27.3,12.2,27.3,27.3v139.3c0,15.1-12.2,27.3-27.3,27.3h0c-15.1,0-27.3-12.2-27.3-27.3V27.3
	C83.6,12.2,95.8,0,110.9,0z"/>
<path class="st1" d="M197.6,0L197.6,0c15.1,0,27.3,12.2,27.3,27.3v52.3c0,15.1-12.2,27.3-27.3,27.3l0,0c-15.1,0-27.3-12.2-27.3-27.3V27.3
	C170.3,12.2,182.5,0,197.6,0z"/>
<path class="st0" d="M197.6,139.3L197.6,139.3c15.1,0,27.3,12.2,27.3,27.3l0,0c0,15.1-12.2,27.3-27.3,27.3l0,0
	c-15.1,0-27.3-12.2-27.3-27.3l0,0C170.3,151.5,182.5,139.3,197.6,139.3z"/>
</svg>
