<?xml version="1.0" encoding="UTF-8"?>
<svg id="logosandtypes_com" data-name="logosandtypes com" xmlns="http://www.w3.org/2000/svg" viewBox="0 0 150 150">
  <defs>
    <style>
      .cls-1 {
        fill: #ffffff;
      }

      .cls-2 {
        fill: none;
      }
    </style>
  </defs>
  <g id="Layer_3" data-name="Layer 3">
    <g id="Layer_3-2" data-name="Layer 3">
      <g id="Layer_2" data-name="Layer 2">
        <path id="Layer_3-3" data-name="Layer 3" class="cls-2" d="M0,0H150V150H0V0Z"/>
      </g>
    </g>
  </g>
  <path class="cls-1" d="M101.45,13.17h-10.46s11.2,1.32,18.49,15.92h10.46c-7.21-14.61-18.49-15.92-18.49-15.92Z"/>
  <path class="cls-1" d="M119.94,29.09c2.69-6.16,4.83-13.75,15.66-15.92h-12.7c-2.43,.42-4.74,1.34-6.8,2.69l-.84,.58c3.4,3.29,5.12,7.95,4.68,12.66Z"/>
  <path class="cls-1" d="M61.49,37.83V113.52c-.3,5.24,1.58,10.37,5.18,14.18h0c4.11,3.51,12.47,5.88,20.71,5.88,4.88,.08,9.74-.65,14.38-2.18,3.48-1.14,6.65-3.07,9.27-5.63,0,0,.16-.18,.23-.12s0,.23,0,.23c-2.54,3.09-5.72,5.6-9.31,7.38-8.3,4.64-17.71,6.9-27.2,6.55-19.21,0-36.98-6.8-45.2-17.34-3.23-4.11-4.66-8.22-4.66-16.44V24.68c0-5.03-3.02-9.57-7.66-11.51h24.27c6.21,0,20.01,5.59,20.01,24.66Z"/>
</svg>